<?xml version="1.0" standalone="no"?>
<!DOCTYPE svg PUBLIC "-//W3C//DTD SVG 20010904//EN"
 "http://www.w3.org/TR/2001/REC-SVG-20010904/DTD/svg10.dtd">
<svg version="1.0" xmlns="http://www.w3.org/2000/svg"
 width="500.000000pt" height="500.000000pt" viewBox="0 0 500.000000 500.000000"
 preserveAspectRatio="xMidYMid meet">
<metadata>
Created by potrace 1.16, written by Peter Selinger 2001-2019
</metadata>
<g transform="translate(0.000000,500.000000) scale(0.100000,-0.100000)"
fill="#E54CE4" stroke="none">
<path d="M2156 3893 l-479 -3 -73 -55 -73 -55 -251 0 -250 0 -63 -97 c-35 -54
-76 -117 -90 -140 l-27 -43 -69 0 -69 0 -37 -66 -36 -66 7 -254 7 -254 56 -55
c50 -49 61 -55 99 -55 45 0 50 -8 28 -43 -13 -20 -10 -32 30 -131 40 -97 44
-116 44 -191 0 -65 -4 -86 -17 -96 -23 -19 -63 -108 -63 -141 0 -15 20 -67 45
-115 31 -60 42 -90 35 -98 -6 -5 -36 -15 -68 -21 l-57 -12 53 -1 c66 -1 69
-20 10 -53 -42 -24 -43 -25 -42 -76 l2 -52 -52 -14 c-28 -8 -116 -33 -196 -55
-94 -26 -127 -38 -93 -34 50 5 52 4 67 -25 22 -43 20 -71 -7 -82 -18 -8 -16
-9 11 -4 28 5 36 1 55 -22 12 -16 115 -140 229 -277 115 -137 206 -252 204
-256 -5 -8 94 3 132 15 17 5 27 0 42 -19 29 -36 54 -41 110 -21 46 17 50 17
68 1 29 -26 58 -21 155 29 61 30 98 43 113 40 41 -11 121 -84 182 -168 72
-100 94 -121 152 -147 65 -30 158 -27 331 9 175 36 220 37 374 5 260 -54 344
-45 432 48 28 29 62 72 77 96 38 59 106 125 155 150 l40 21 92 -45 c99 -48
132 -54 160 -29 16 14 21 14 65 -1 26 -9 58 -14 71 -10 19 4 60 81 227 420
113 228 207 424 211 435 9 29 -19 68 -61 86 -24 10 -34 21 -34 36 0 12 -8 30
-17 40 -15 17 -15 22 -3 41 92 145 97 207 24 302 l-35 47 6 81 c5 61 18 108
47 184 38 97 40 104 25 127 -20 29 -14 36 32 36 31 0 45 8 93 58 l56 57 5 255
6 255 -37 65 c-36 62 -39 65 -73 62 -19 -2 -47 2 -62 7 -18 7 -26 7 -22 1 15
-24 -16 -7 -34 19 -27 38 -27 49 2 25 l22 -19 -19 22 c-10 13 -22 20 -26 18
-4 -3 -16 8 -25 23 l-18 27 24 -20 c22 -18 22 -17 -2 10 -15 17 -24 36 -22 43
3 8 -1 12 -11 10 -10 -2 -30 18 -55 55 l-39 59 49 45 c27 25 49 49 49 53 0 3
-21 -13 -47 -37 -38 -36 -52 -43 -72 -38 -21 5 -23 4 -12 -9 12 -14 -10 -16
-223 -16 l-235 0 -36 52 c-27 41 -35 48 -35 30 0 -28 -7 -28 -52 3 l-37 25
-338 -2 c-186 -2 -554 -4 -817 -5z m346 -373 c200 0 237 2 248 15 7 9 32 30
54 47 23 17 6 -3 -37 -43 l-78 -74 -10 -100 c-9 -83 -14 -103 -32 -117 -21
-16 -22 -25 -25 -232 l-4 -216 -118 0 -118 0 -4 216 c-3 207 -4 216 -25 232
-18 14 -24 33 -32 114 l-11 98 -78 76 c-65 64 -68 69 -21 30 l56 -46 235 0z
m1010 -496 c17 -9 40 -13 54 -10 16 4 42 -3 74 -19 47 -24 50 -27 50 -65 0
-22 -2 -40 -5 -40 -2 0 -52 23 -110 52 -88 43 -105 55 -105 75 0 27 2 28 42 7z
m578 -173 l-5 -89 -103 -110 c-101 -108 -103 -110 -155 -116 -107 -12 -769
-57 -774 -53 -3 3 4 10 15 16 22 12 94 19 517 52 l280 22 102 106 102 106 1
71 c0 65 4 84 19 84 3 0 4 -40 1 -89z m-3150 -21 l0 -65 103 -101 102 -101
245 -18 c489 -34 538 -39 554 -55 14 -13 10 -15 -32 -12 -26 1 -212 13 -413
27 l-365 23 -112 114 -112 113 0 90 c1 81 2 88 15 71 10 -13 15 -43 15 -86z
m1771 -134 c61 -51 70 -55 124 -58 l57 -3 -45 -32 c-37 -27 -54 -33 -98 -33
l-53 0 30 31 29 30 -50 44 -50 44 -150 0 c-103 0 -155 -3 -166 -12 -9 -7 -33
-27 -54 -45 l-37 -33 28 -30 28 -29 -53 0 c-44 0 -61 6 -98 33 l-45 32 62 3
c60 3 66 6 127 58 l64 54 142 0 143 0 65 -54z m-1093 -1092 c135 -269 198
-404 189 -407 -8 -3 -88 145 -230 423 -141 280 -213 430 -204 433 16 5 14 9
245 -449z m1819 27 c-183 -370 -237 -467 -237 -421 0 5 86 180 190 390 105
209 190 382 190 385 0 15 45 75 56 75 9 0 -64 -158 -199 -429z m-1775 198 c54
-7 118 -6 210 2 221 20 191 30 271 -93 51 -80 66 -111 59 -123 -7 -13 -20 2
-68 74 -52 82 -62 91 -84 87 -14 -3 -70 -10 -125 -16 -55 -6 -117 -13 -137
-16 -33 -5 -39 -3 -49 19 -10 22 -19 25 -89 31 -70 7 -78 9 -89 33 -10 23 -10
25 6 19 10 -4 52 -12 95 -17z m1583 6 c66 0 139 4 163 8 35 7 42 6 42 -7 0
-24 -33 -36 -100 -36 -55 0 -61 -2 -72 -25 -13 -30 -14 -30 -200 -9 -77 8
-141 14 -143 12 -1 -2 -26 -39 -55 -83 -29 -44 -55 -82 -57 -84 -2 -3 -8 0
-14 6 -9 9 7 41 57 123 l69 111 95 -8 c52 -4 149 -8 215 -8z m923 -30 c5 -5
-111 -244 -284 -588 -91 -180 -124 -233 -124 -197 0 6 83 181 185 388 102 207
183 382 181 389 -3 7 -12 13 -21 13 -8 0 -15 7 -15 15 0 14 4 14 37 0 20 -9
39 -18 41 -20z m-3248 5 c0 -5 -3 -10 -7 -10 -43 -1 -36 -20 161 -414 109
-218 200 -396 203 -396 2 0 13 5 23 10 11 6 21 6 24 1 4 -5 -10 -15 -30 -21
-33 -11 -38 -10 -48 6 -21 36 -359 700 -382 751 l-24 53 28 14 c32 18 52 20
52 6z m1104 -230 l27 -41 -27 -32 c-15 -18 -32 -45 -39 -60 -11 -28 -12 -27
-57 65 l-45 93 36 6 c72 12 77 11 105 -31z m1087 32 c14 -6 11 -19 -26 -96
-41 -85 -43 -88 -55 -65 -7 13 -26 38 -42 55 l-30 32 27 41 c25 37 31 41 69
40 22 0 48 -3 57 -7z m-465 -164 c35 -40 72 -103 88 -152 26 -77 19 -166 -25
-309 l-21 -67 -181 2 -181 3 -24 75 c-15 47 -26 112 -29 172 -5 92 -4 99 25
162 17 36 43 81 59 101 l28 35 121 0 c112 0 122 -2 140 -22z"/>
<path d="M2363 1373 c-61 -98 -71 -194 -33 -306 36 -110 35 -111 116 89 l25
61 -36 98 c-19 55 -37 100 -39 102 -2 2 -17 -18 -33 -44z"/>
<path d="M2581 1317 l-34 -105 48 -116 c27 -64 52 -116 56 -116 4 0 18 30 31
68 33 98 32 209 -4 277 -14 28 -34 61 -45 73 l-19 24 -33 -105z"/>
<path d="M2500 1162 c0 -6 -18 -50 -40 -97 -22 -47 -40 -93 -40 -102 0 -13 13
-14 84 -12 46 2 87 7 90 10 4 3 -13 50 -37 103 -44 97 -57 119 -57 98z"/>
</g>
</svg>
